PathFileType	4	(X/Y/Z)	C:\Users\86182\Documents\cortex\Trimmed_M4_L8.trc
DataRate	CameraRate	NumFrames	NumMarkers	Units	OrigDataRate	OrigDataStartFrame	OrigNumFrames
100.00	100.00	       112	2	mm	100.00	721	       901
Frame#	Time	gripper			box			
		X1	Y1	Z1	X2	Y2	Z2	

721	7.200	276.24210	151.23236	292.46301	277.02441	149.39587	156.94737	
722	7.210	276.24310	151.23207	292.46277	277.02222	149.39577	156.94470	
723	7.220	276.24081	151.23271	292.46332	277.02032	149.39566	156.94228	
724	7.230	276.23596	151.23407	292.46448	277.01886	149.39554	156.94026	
725	7.240	276.22995	151.23576	292.46588	277.01782	149.39543	156.93877	
726	7.250	276.22400	151.23743	292.46732	277.01721	149.39545	156.93797	
727	7.260	276.21890	151.23886	292.46854	277.01694	149.39566	156.93793	
728	7.270	276.21512	151.23993	292.46945	277.01691	149.39594	156.93829	
729	7.280	276.21268	151.24060	292.47003	277.01697	149.39610	156.93861	
730	7.290	276.21149	151.24094	292.47034	277.01709	149.39615	156.93881	
731	7.300	276.21143	151.24095	292.47034	277.01724	149.39616	156.93901	
732	7.310	276.21240	151.24068	292.47012	277.01743	149.39613	156.93919	
733	7.320	276.21411	151.24020	292.46973	277.01764	149.39603	156.93925	
734	7.330	276.21628	151.23959	292.46918	277.01782	149.39584	156.93921	
735	7.340	276.21887	151.23886	292.46857	277.01804	149.39560	156.93909	
736	7.350	276.22208	151.23796	292.46780	277.01819	149.39536	156.93889	
737	7.360	276.22614	151.23683	292.46683	277.01828	149.39508	156.93851	
738	7.370	276.23083	151.23550	292.46570	277.01819	149.39471	156.93784	
739	7.380	276.23544	151.23422	292.46460	277.01801	149.39432	156.93694	
740	7.390	276.23898	151.23322	292.46375	277.01779	149.39401	156.93614	
741	7.400	276.24088	151.23268	292.46332	277.01761	149.39394	156.93575	
742	7.410	276.24103	151.23265	292.46326	277.01743	149.39407	156.93576	
743	7.420	276.23965	151.23303	292.46359	277.01730	149.39436	156.93605	
744	7.430	276.23746	151.23366	292.46411	277.01724	149.39471	156.93655	
745	7.440	276.23541	151.23422	292.46460	277.01727	149.39511	156.93729	
746	7.450	276.23438	151.23451	292.46484	277.01743	149.39555	156.93822	
747	7.460	276.23483	151.23439	292.46475	277.01773	149.39595	156.93929	
748	7.470	276.23663	151.23389	292.46432	277.01813	149.39619	156.94022	
749	7.480	276.23904	151.23320	292.46375	277.01859	149.39615	156.94075	
750	7.490	276.24112	151.23262	292.46326	277.01907	149.39583	156.94087	
751	7.500	276.24210	151.23235	292.46301	277.01953	149.39540	156.94075	
752	7.510	276.24170	151.23245	292.46313	277.01981	149.39510	156.94057	
753	7.520	276.23999	151.23294	292.46353	277.01981	149.39500	156.94041	
754	7.530	276.23718	151.23373	292.46420	277.01950	149.39517	156.94028	
755	7.540	276.23364	151.23473	292.46503	277.01901	149.39545	156.94012	
756	7.550	276.23007	151.23573	292.46588	277.01852	149.39571	156.93990	
757	7.560	276.22720	151.23653	292.46655	277.01807	149.39584	156.93951	
758	7.570	276.22571	151.23695	292.46692	277.01770	149.39583	156.93903	
759	7.580	276.22577	151.23692	292.46692	277.01743	149.39574	156.93854	
760	7.590	276.22742	151.23647	292.46649	277.01730	149.39566	156.93823	
761	7.600	276.23022	151.23569	292.46585	277.01730	149.39569	156.93828	
762	7.610	276.23373	151.23470	292.46503	277.01740	149.39592	156.93880	
763	7.620	276.23764	151.23360	292.46408	277.01761	149.39629	156.93968	
764	7.630	276.24191	151.23239	292.46307	277.01779	149.39664	156.94054	
765	7.640	276.24643	151.23114	292.46198	277.01791	149.39670	156.94078	
766	7.650	276.25079	151.22990	292.46094	277.01788	149.39630	156.94005	
767	7.660	276.25443	151.22890	292.46008	277.01764	149.39548	156.93837	
768	7.670	276.25662	151.22827	292.45956	277.01733	149.39444	156.93623	
769	7.680	276.25705	151.22815	292.45947	277.01703	149.39346	156.93417	
770	7.690	276.25583	151.22850	292.45975	277.01678	149.39267	156.93254	
771	7.700	276.25348	151.22916	292.46033	277.01666	149.39214	156.93147	
772	7.710	276.25055	151.22998	292.46103	277.01666	149.39188	156.93106	
773	7.720	276.24719	151.23091	292.46179	277.01682	149.39194	156.93138	
774	7.730	276.24365	151.23192	292.46265	277.01718	149.39232	156.93248	
775	7.740	276.24042	151.23282	292.46341	277.01773	149.39293	156.93422	
776	7.750	276.23816	151.23346	292.46393	277.01852	149.39351	156.93622	
777	7.760	276.23703	151.23376	292.46420	277.01947	149.39380	156.93796	
778	7.770	276.23676	151.23386	292.46426	277.02048	149.39366	156.93901	
779	7.780	276.23666	151.23387	292.46429	277.02130	149.39311	156.93918	
780	7.790	276.23639	151.23395	292.46436	277.02167	149.39235	156.93840	
781	7.800	276.23587	151.23410	292.46448	277.02142	149.39163	156.93686	
782	7.810	276.23526	151.23427	292.46466	277.02063	149.39111	156.93498	
783	7.820	276.23483	151.23439	292.46478	277.01956	149.39091	156.93324	
784	7.830	276.23471	151.23442	292.46478	277.01849	149.39098	156.93195	
785	7.840	276.23483	151.23439	292.46475	277.01758	149.39125	156.93120	
786	7.850	276.23474	151.23441	292.46478	277.01691	149.39165	156.93098	
787	7.860	276.23413	151.23459	292.46490	277.01654	149.39214	156.93126	
788	7.870	276.23288	151.23494	292.46521	277.01639	149.39261	156.93184	
789	7.880	276.23120	151.23541	292.46561	277.01645	149.39301	156.93256	
790	7.890	276.22937	151.23592	292.46603	277.01672	149.39326	156.93326	
791	7.900	276.22766	151.23640	292.46646	277.01712	149.39331	156.93384	
792	7.910	276.22614	151.23682	292.46680	277.01770	149.39314	156.93430	
793	7.920	276.22495	151.23717	292.46710	277.01840	149.39285	156.93475	
794	7.930	276.22418	151.23738	292.46729	277.01917	149.39246	156.93527	
795	7.940	276.22412	151.23740	292.46729	277.01981	149.39200	156.93567	
796	7.950	276.22510	151.23712	292.46704	277.02008	149.39151	156.93573	
797	7.960	276.22720	151.23653	292.46655	277.01978	149.39108	156.93541	
798	7.970	276.23029	151.23567	292.46582	277.01892	149.39081	156.93484	
799	7.980	276.23380	151.23468	292.46500	277.01770	149.39075	156.93433	
800	7.990	276.23706	151.23376	292.46423	277.01645	149.39099	156.93410	
801	8.000	276.23917	151.23317	292.46371	277.01553	149.39159	156.93445	
802	8.010	276.23941	151.23311	292.46365	277.01514	149.39256	156.93549	
803	8.020	276.23749	151.23364	292.46411	277.01517	149.39383	156.93715	
804	8.030	276.23410	151.23459	292.46490	277.01550	149.39517	156.93924	
805	8.040	276.23035	151.23564	292.46582	277.01593	149.39647	156.94148	
806	8.050	276.22711	151.23656	292.46658	277.01645	149.39752	156.94356	
807	8.060	276.22470	151.23723	292.46716	277.01697	149.39822	156.94504	
808	8.070	276.22327	151.23764	292.46753	277.01755	149.39847	156.94568	
809	8.080	276.22293	151.23773	292.46759	277.01810	149.39824	156.94534	
810	8.090	276.22375	151.23750	292.46741	277.01846	149.39751	156.94397	
811	8.100	276.22543	151.23701	292.46698	277.01852	149.39641	156.94171	
812	8.110	276.22763	151.23640	292.46646	277.01831	149.39523	156.93907	
813	8.120	276.23001	151.23575	292.46588	277.01794	149.39433	156.93684	
814	8.130	276.23239	151.23508	292.46533	277.01761	149.39395	156.93568	
815	8.140	276.23453	151.23447	292.46481	277.01746	149.39413	156.93575	
816	8.150	276.23630	151.23398	292.46439	277.01749	149.39474	156.93680	
817	8.160	276.23764	151.23360	292.46405	277.01770	149.39551	156.93837	
818	8.170	276.23834	151.23340	292.46390	277.01801	149.39621	156.93999	
819	8.180	276.23822	151.23343	292.46393	277.01840	149.39673	156.94141	
820	8.190	276.23718	151.23373	292.46417	277.01883	149.39708	156.94255	
821	8.200	276.23553	151.23419	292.46457	277.01920	149.39723	156.94331	
822	8.210	276.23386	151.23466	292.46497	277.01935	149.39713	156.94337	
823	8.220	276.23257	151.23502	292.46527	277.01923	149.39665	156.94243	
824	8.230	276.23196	151.23518	292.46542	277.01883	149.39592	156.94069	
825	8.240	276.23187	151.23521	292.46545	277.01831	149.39514	156.93871	
826	8.250	276.23181	151.23524	292.46545	277.01779	149.39452	156.93697	
827	8.260	276.23135	151.23537	292.46558	277.01740	149.39415	156.93585	
828	8.270	276.23047	151.23561	292.46579	277.01715	149.39415	156.93553	
829	8.280	276.22943	151.23590	292.46603	277.01712	149.39444	156.93596	
830	8.290	276.22858	151.23615	292.46625	277.01721	149.39484	156.93672	
831	8.300	276.22827	151.23624	292.46631	277.01736	149.39516	156.93748	
832	8.310	276.22870	151.23610	292.46622	277.01761	149.39534	156.93813	
